# xmcd
#
# Track frame offsets:
#	150
#	17042
#	28583
#	44932
#	57813
#	73100
#	86970
#	100619
#	112349
#	131547
#	144352
#	160076
#	176772
#	191878
#	205254
#	223219
#
# Disc length: 3162 seconds
#
# Revision: 1
# Processed by: cddbd v1.5.2PL0 Copyright (c) Steve Scherf et al.
# Submitted via: audiograbber 1.83.01
#
DISCID=f80c5810
DTITLE=M T M - M T M 021
DYEAR=2007
DGENRE=Country
TTITLE0=Find Out Who Your Friends Are  - Tracy Lawrence
TTITLE1=Too Country And Proud Of It - Billy Yates
TTITLE2=Gonna Getcha Back  - Desert Heart
TTITLE3=Cowboy Boots And Lewis  - Kelly Brock
TTITLE4=Traded In My Horse For A Harley  - Danny Ball
TTITLE5=Shinin River  - Codie Prevost
TTITLE6=Picture Of Love  - Rachel Lillott
TTITLE7=Things Are Bad - Patrick Riley And J Carson and D Singltary
TTITLE8=I´m Leaving  - Peter and The Rowers
TTITLE9=Let´s Go To Bed Early  - Clear Blue 22
TTITLE10=Let´s Take The Weekend  - The Tin Ridge Band 
TTITLE11=Momma Knows  - Ray William Roldan
TTITLE12=Tough  - Amanda White
TTITLE13=My Biggest Mistake  - Cindy Lu
TTITLE14=The Lil´ Things  - Sean Kristoffer
TTITLE15=Don´t Come Crying  - Rustie Blue
EXTD=
EXTT0=
EXTT1=
EXTT2=
EXTT3=
EXTT4=
EXTT5=
EXTT6=
EXTT7=
EXTT8=
EXTT9=
EXTT10=
EXTT11=
EXTT12=
EXTT13=
EXTT14=
EXTT15=
PLAYORDER=
